<mxfile host="Electron" modified="2024-05-19T07:58:13.693Z" agent="Mozilla/5.0 (Macintosh; Intel Mac OS X 10_15_7) AppleWebKit/537.36 (KHTML, like Gecko) draw.io/24.4.0 Chrome/120.0.6099.109 Electron/28.1.0 Safari/537.36" etag="JEvbUUohVMso_EGQCdw3" version="24.4.0" type="device">
  <diagram name="페이지-1" id="1fIYmPVoGqOGr6b9jZ_N">
    <mxGraphModel dx="1570" dy="829" grid="1" gridSize="10" guides="1" tooltips="1" connect="1" arrows="1" fold="1" page="1" pageScale="1" pageWidth="827" pageHeight="1169" math="0" shadow="0">
      <root>
        <mxCell id="0" />
        <mxCell id="1" parent="0" />
        <mxCell id="kdxF6BJ3II5lzEvQbHgq-1" value="com.assu.study" style="rounded=1;whiteSpace=wrap;html=1;verticalAlign=top;fontStyle=1;fillColor=#f5f5f5;fontColor=#333333;strokeColor=#666666;" vertex="1" parent="1">
          <mxGeometry x="20" y="19" width="1190" height="320" as="geometry" />
        </mxCell>
        <mxCell id="kdxF6BJ3II5lzEvQbHgq-9" value="catalog" style="rounded=1;whiteSpace=wrap;html=1;verticalAlign=top;fontStyle=1;fillColor=#d5e8d4;strokeColor=#82b366;" vertex="1" parent="1">
          <mxGeometry x="40" y="59" width="370" height="260" as="geometry" />
        </mxCell>
        <mxCell id="kdxF6BJ3II5lzEvQbHgq-2" style="edgeStyle=orthogonalEdgeStyle;rounded=0;orthogonalLoop=1;jettySize=auto;html=1;entryX=0.5;entryY=0;entryDx=0;entryDy=0;dashed=1;endArrow=open;endFill=0;" edge="1" parent="1" source="kdxF6BJ3II5lzEvQbHgq-3" target="kdxF6BJ3II5lzEvQbHgq-5">
          <mxGeometry relative="1" as="geometry" />
        </mxCell>
        <mxCell id="kdxF6BJ3II5lzEvQbHgq-3" value="ui (표현 영역)&lt;br&gt;&lt;i&gt;(Controller..)&lt;/i&gt;" style="rounded=0;whiteSpace=wrap;html=1;" vertex="1" parent="1">
          <mxGeometry x="80" y="89" width="130" height="50" as="geometry" />
        </mxCell>
        <mxCell id="kdxF6BJ3II5lzEvQbHgq-4" style="edgeStyle=orthogonalEdgeStyle;rounded=0;orthogonalLoop=1;jettySize=auto;html=1;entryX=0.5;entryY=0;entryDx=0;entryDy=0;dashed=1;endArrow=open;endFill=0;" edge="1" parent="1" source="kdxF6BJ3II5lzEvQbHgq-5" target="kdxF6BJ3II5lzEvQbHgq-6">
          <mxGeometry relative="1" as="geometry" />
        </mxCell>
        <mxCell id="kdxF6BJ3II5lzEvQbHgq-5" value="application (응용 영역)&lt;div&gt;&lt;i&gt;(Service..)&lt;/i&gt;&lt;/div&gt;" style="rounded=0;whiteSpace=wrap;html=1;" vertex="1" parent="1">
          <mxGeometry x="80" y="169" width="130" height="50" as="geometry" />
        </mxCell>
        <mxCell id="kdxF6BJ3II5lzEvQbHgq-6" value="domain" style="rounded=0;whiteSpace=wrap;html=1;" vertex="1" parent="1">
          <mxGeometry x="80" y="239" width="130" height="50" as="geometry" />
        </mxCell>
        <mxCell id="kdxF6BJ3II5lzEvQbHgq-7" style="edgeStyle=orthogonalEdgeStyle;rounded=0;orthogonalLoop=1;jettySize=auto;html=1;entryX=1;entryY=0.5;entryDx=0;entryDy=0;dashed=1;endArrow=block;endFill=0;" edge="1" parent="1" source="kdxF6BJ3II5lzEvQbHgq-8" target="kdxF6BJ3II5lzEvQbHgq-6">
          <mxGeometry relative="1" as="geometry" />
        </mxCell>
        <mxCell id="kdxF6BJ3II5lzEvQbHgq-8" value="infrastructure" style="rounded=0;whiteSpace=wrap;html=1;" vertex="1" parent="1">
          <mxGeometry x="260" y="239" width="130" height="50" as="geometry" />
        </mxCell>
        <mxCell id="kdxF6BJ3II5lzEvQbHgq-10" value="order" style="rounded=1;whiteSpace=wrap;html=1;verticalAlign=top;fontStyle=1;fillColor=#d5e8d4;strokeColor=#82b366;" vertex="1" parent="1">
          <mxGeometry x="430" y="59" width="370" height="260" as="geometry" />
        </mxCell>
        <mxCell id="kdxF6BJ3II5lzEvQbHgq-11" style="edgeStyle=orthogonalEdgeStyle;rounded=0;orthogonalLoop=1;jettySize=auto;html=1;entryX=0.5;entryY=0;entryDx=0;entryDy=0;dashed=1;endArrow=open;endFill=0;" edge="1" parent="1" source="kdxF6BJ3II5lzEvQbHgq-12" target="kdxF6BJ3II5lzEvQbHgq-14">
          <mxGeometry relative="1" as="geometry" />
        </mxCell>
        <mxCell id="kdxF6BJ3II5lzEvQbHgq-12" value="ui (표현 영역)&lt;br&gt;&lt;i&gt;(Controller..)&lt;/i&gt;" style="rounded=0;whiteSpace=wrap;html=1;" vertex="1" parent="1">
          <mxGeometry x="470" y="89" width="130" height="50" as="geometry" />
        </mxCell>
        <mxCell id="kdxF6BJ3II5lzEvQbHgq-13" style="edgeStyle=orthogonalEdgeStyle;rounded=0;orthogonalLoop=1;jettySize=auto;html=1;entryX=0.5;entryY=0;entryDx=0;entryDy=0;dashed=1;endArrow=open;endFill=0;" edge="1" parent="1" source="kdxF6BJ3II5lzEvQbHgq-14" target="kdxF6BJ3II5lzEvQbHgq-15">
          <mxGeometry relative="1" as="geometry" />
        </mxCell>
        <mxCell id="kdxF6BJ3II5lzEvQbHgq-14" value="application (응용 영역)&lt;div&gt;&lt;i&gt;(Service..)&lt;/i&gt;&lt;/div&gt;" style="rounded=0;whiteSpace=wrap;html=1;" vertex="1" parent="1">
          <mxGeometry x="470" y="169" width="130" height="50" as="geometry" />
        </mxCell>
        <mxCell id="kdxF6BJ3II5lzEvQbHgq-15" value="domain" style="rounded=0;whiteSpace=wrap;html=1;" vertex="1" parent="1">
          <mxGeometry x="470" y="239" width="130" height="50" as="geometry" />
        </mxCell>
        <mxCell id="kdxF6BJ3II5lzEvQbHgq-16" style="edgeStyle=orthogonalEdgeStyle;rounded=0;orthogonalLoop=1;jettySize=auto;html=1;entryX=1;entryY=0.5;entryDx=0;entryDy=0;dashed=1;endArrow=block;endFill=0;" edge="1" parent="1" source="kdxF6BJ3II5lzEvQbHgq-17" target="kdxF6BJ3II5lzEvQbHgq-15">
          <mxGeometry relative="1" as="geometry" />
        </mxCell>
        <mxCell id="kdxF6BJ3II5lzEvQbHgq-17" value="infrastructure" style="rounded=0;whiteSpace=wrap;html=1;" vertex="1" parent="1">
          <mxGeometry x="650" y="239" width="130" height="50" as="geometry" />
        </mxCell>
        <mxCell id="kdxF6BJ3II5lzEvQbHgq-18" value="member" style="rounded=1;whiteSpace=wrap;html=1;verticalAlign=top;fontStyle=1;fillColor=#d5e8d4;strokeColor=#82b366;" vertex="1" parent="1">
          <mxGeometry x="820" y="59" width="370" height="260" as="geometry" />
        </mxCell>
        <mxCell id="kdxF6BJ3II5lzEvQbHgq-19" style="edgeStyle=orthogonalEdgeStyle;rounded=0;orthogonalLoop=1;jettySize=auto;html=1;entryX=0.5;entryY=0;entryDx=0;entryDy=0;dashed=1;endArrow=open;endFill=0;" edge="1" parent="1" source="kdxF6BJ3II5lzEvQbHgq-20" target="kdxF6BJ3II5lzEvQbHgq-22">
          <mxGeometry relative="1" as="geometry" />
        </mxCell>
        <mxCell id="kdxF6BJ3II5lzEvQbHgq-20" value="ui (표현 영역)&lt;br&gt;&lt;i&gt;(Controller..)&lt;/i&gt;" style="rounded=0;whiteSpace=wrap;html=1;" vertex="1" parent="1">
          <mxGeometry x="860" y="89" width="130" height="50" as="geometry" />
        </mxCell>
        <mxCell id="kdxF6BJ3II5lzEvQbHgq-21" style="edgeStyle=orthogonalEdgeStyle;rounded=0;orthogonalLoop=1;jettySize=auto;html=1;entryX=0.5;entryY=0;entryDx=0;entryDy=0;dashed=1;endArrow=open;endFill=0;" edge="1" parent="1" source="kdxF6BJ3II5lzEvQbHgq-22" target="kdxF6BJ3II5lzEvQbHgq-23">
          <mxGeometry relative="1" as="geometry" />
        </mxCell>
        <mxCell id="kdxF6BJ3II5lzEvQbHgq-22" value="application (응용 영역)&lt;div&gt;&lt;i&gt;(Service..)&lt;/i&gt;&lt;/div&gt;" style="rounded=0;whiteSpace=wrap;html=1;" vertex="1" parent="1">
          <mxGeometry x="860" y="169" width="130" height="50" as="geometry" />
        </mxCell>
        <mxCell id="kdxF6BJ3II5lzEvQbHgq-23" value="domain" style="rounded=0;whiteSpace=wrap;html=1;" vertex="1" parent="1">
          <mxGeometry x="860" y="239" width="130" height="50" as="geometry" />
        </mxCell>
        <mxCell id="kdxF6BJ3II5lzEvQbHgq-24" style="edgeStyle=orthogonalEdgeStyle;rounded=0;orthogonalLoop=1;jettySize=auto;html=1;entryX=1;entryY=0.5;entryDx=0;entryDy=0;dashed=1;endArrow=block;endFill=0;" edge="1" parent="1" source="kdxF6BJ3II5lzEvQbHgq-25" target="kdxF6BJ3II5lzEvQbHgq-23">
          <mxGeometry relative="1" as="geometry" />
        </mxCell>
        <mxCell id="kdxF6BJ3II5lzEvQbHgq-25" value="infrastructure" style="rounded=0;whiteSpace=wrap;html=1;" vertex="1" parent="1">
          <mxGeometry x="1040" y="239" width="130" height="50" as="geometry" />
        </mxCell>
      </root>
    </mxGraphModel>
  </diagram>
</mxfile>
